<svg width="124" height="53" viewBox="0 0 124 53" fill="none" xmlns="http://www.w3.org/2000/svg">
<g clip-path="url(#clip0_2216_305)">
<path d="M3.42017 39.428C2.62417 35.3713 6.78783 28.8438 12.0449 24.1825C4.68851 29.3081 -0.813469 36.6768 0.0962373 41.4782C2.21305 52.6495 29.8366 56.3207 61.8338 49.6968L63.9681 49.2324C31.4899 53.7623 5.51074 50.0823 3.42017 39.428Z" fill="#BE1E2D"/>
<path d="M120.58 13.5457C121.393 17.6287 117.195 24.1474 111.955 28.7912C119.294 23.6743 124.813 16.3056 123.895 11.5129C121.778 0.350443 94.1808 -3.32074 62.1662 3.28564L60.0319 3.74125C92.4839 -0.762304 118.463 2.90888 120.58 13.5457Z" fill="#BE1E2D"/>
<path d="M66.3473 9.42761L65.0965 15.298H56.8042L54.0138 28.4932L51.2322 41.6359H42.5725L45.0217 30.0704L48.162 15.298H40.0883V15.1753L41.3042 9.46266L66.3473 9.42761Z" fill="white"/>
<path d="M92.8951 9.42761L91.7055 15.298H83.6143L80.789 28.5458L78.0074 41.6184H69.3652L71.8144 30.1405L74.9546 15.3155H66.6273L67.8782 9.44514L92.8951 9.42761Z" fill="white"/>
<path d="M33.4267 15.5539C36.4329 14.9393 38.5207 12.7266 38.0898 10.6116C37.6589 8.49652 34.8724 7.28015 31.8662 7.8947C28.8599 8.50925 26.7721 10.722 27.203 12.837C27.634 14.9521 30.4204 16.1684 33.4267 15.5539Z" fill="white"/>
<path d="M101.511 15.6768C104.519 15.0747 106.616 12.871 106.194 10.7546C105.771 8.63829 102.991 7.41074 99.9824 8.01284C96.9743 8.61493 94.8779 10.8187 95.3001 12.935C95.7223 15.0514 98.5031 16.2789 101.511 15.6768Z" fill="white"/>
<path d="M98.7645 41.6184L103.794 17.874H95.2393L90.1572 41.6184H98.7645Z" fill="white"/>
<path d="M30.7901 41.6184L35.8634 17.874H27.1775L22.1304 41.6184H30.7901Z" fill="white"/>
<path d="M68.4292 46.0168H69.645C70.163 45.9956 70.6808 46.0638 71.1758 46.2184C71.4975 46.3393 71.7696 46.5646 71.9487 46.8583C72.1278 47.152 72.2037 47.4974 72.1642 47.8393C72.1313 48.2507 71.9793 48.6435 71.7268 48.9696C71.4745 49.2952 71.1391 49.5465 70.7559 49.6968C70.1303 49.8745 69.4816 49.9572 68.8315 49.9421L68.228 52.8072H66.9159L68.4292 46.0168ZM69.1027 48.7418C69.5791 48.778 70.0575 48.7061 70.5022 48.5315C70.6131 48.4639 70.7061 48.3704 70.7731 48.259C70.8401 48.1476 70.8792 48.0217 70.8871 47.8919C70.8971 47.8238 70.8929 47.7545 70.8748 47.6881C70.8567 47.6218 70.8252 47.5599 70.7821 47.5063C70.7421 47.4468 70.6905 47.3959 70.6304 47.3568C70.5702 47.3176 70.5029 47.291 70.4323 47.2785C70.115 47.2522 69.7961 47.2522 69.4788 47.2785L69.1027 48.7418Z" fill="white"/>
<path d="M72.7678 47.7867H74.0711L74.6222 50.5817L76.5029 47.7867H77.8499L74.4385 52.7897H73.8437L72.7678 47.7867Z" fill="white"/>
<path d="M79.3632 45.9292H80.5965L80.1766 47.7867H80.9464L80.719 48.8469H79.9317L79.057 52.7897H77.7799L78.6546 48.8469H78.0598L78.2872 47.7867H78.9083L79.3632 45.9292Z" fill="white"/>
<path d="M81.6899 51.3878C81.7893 51.3837 81.8885 51.4011 81.9806 51.4389C82.0727 51.4767 82.1555 51.534 82.2235 51.6068C82.2921 51.678 82.3435 51.764 82.3738 51.8581C82.4042 51.9523 82.4126 52.0522 82.3984 52.1501C82.3753 52.3621 82.2758 52.5583 82.1185 52.7021C81.9626 52.8441 81.7607 52.925 81.55 52.9299C81.4511 52.9334 81.3526 52.9148 81.2618 52.8754C81.171 52.836 81.0902 52.7768 81.0251 52.7021C80.9519 52.632 80.8969 52.5451 80.8649 52.4489C80.8329 52.3527 80.8248 52.2501 80.8414 52.1501C80.8586 51.9408 80.9557 51.7462 81.1126 51.6068C81.1894 51.5337 81.28 51.4766 81.3792 51.439C81.4783 51.4014 81.584 51.384 81.6899 51.3878Z" fill="white"/>
<path d="M85.3025 46.0168H86.5971L85.3113 51.6419H87.4718L87.2269 52.8072H83.728L85.3025 46.0168Z" fill="white"/>
<path d="M89.5711 45.9292H90.8132L90.3846 47.7867H91.1631L90.9706 48.8469H90.1746L89.2999 52.7897H88.0491L88.9238 48.8469H88.3202L88.5477 47.7867H89.1687L89.5711 45.9292Z" fill="white"/>
<path d="M96.3502 45.9292H97.601L96.009 52.8598H94.7757L94.8981 52.3253C94.6612 52.5468 94.3893 52.7274 94.0934 52.8598C93.8338 52.9586 93.5576 53.0063 93.2799 53C92.9798 53.0231 92.6789 52.9684 92.4062 52.841C92.1334 52.7136 91.8981 52.5179 91.7229 52.2727C91.3575 51.7667 91.2008 51.1391 91.2855 50.5204C91.3455 49.9957 91.5382 49.4951 91.8454 49.0659C92.1279 48.6351 92.5087 48.2777 92.9563 48.0233C93.3824 47.7874 93.8602 47.661 94.3471 47.6553C94.6519 47.6478 94.9535 47.7203 95.2218 47.8656C95.4741 48.0132 95.6802 48.2287 95.8166 48.4876L96.3502 45.9292ZM93.6648 51.9047C93.9697 51.9122 94.2712 51.8397 94.5395 51.6945C94.8015 51.5369 95.0208 51.3173 95.178 51.0548C95.3538 50.7948 95.4565 50.4921 95.4754 50.1787C95.5293 49.8918 95.4675 49.5952 95.3035 49.3538C95.1396 49.1124 94.8869 48.9459 94.6007 48.8907C94.505 48.8776 94.4078 48.8776 94.3121 48.8907C93.8707 48.8992 93.4489 49.0744 93.1312 49.3813C92.7937 49.7126 92.5858 50.154 92.5451 50.6255C92.5244 50.794 92.5385 50.9651 92.5867 51.1279C92.6348 51.2907 92.716 51.4418 92.8251 51.5718C92.9336 51.6835 93.0646 51.771 93.2093 51.8284C93.354 51.8858 93.5093 51.9118 93.6648 51.9047Z" fill="white"/>
<path d="M98.3795 51.3878C98.4777 51.3838 98.5755 51.4013 98.6661 51.4391C98.7568 51.477 98.8381 51.5342 98.9043 51.6068C98.9747 51.6768 99.0273 51.7627 99.0577 51.8572C99.0881 51.9517 99.0955 52.0521 99.0793 52.1501C99.0562 52.3621 98.9566 52.5583 98.7994 52.7021C98.6435 52.8441 98.4416 52.925 98.2308 52.9299C98.1319 52.9334 98.0335 52.9148 97.9427 52.8754C97.8519 52.836 97.771 52.7768 97.706 52.7021C97.6343 52.6312 97.581 52.5439 97.5505 52.4477C97.52 52.3515 97.5133 52.2494 97.531 52.1501C97.5361 52.0465 97.5619 51.945 97.607 51.8517C97.6521 51.7583 97.7155 51.6751 97.7935 51.6068C97.8716 51.533 97.9637 51.4756 98.0644 51.4379C98.165 51.4003 98.2722 51.3833 98.3795 51.3878Z" fill="white"/>
</g>
<defs>
<clipPath id="clip0_2216_305">
<rect width="124" height="53" fill="white"/>
</clipPath>
</defs>
</svg>
